<svg xmlns="http://www.w3.org/2000/svg" width="52pt" height="52pt" viewBox="0 0 52 52"><path d="M5.2 52A5.2 5.2 0 010 46.8V5.2A5.2 5.2 0 015.2 0h41.6A5.2 5.2 0 0152 5.2v41.6a5.2 5.2 0 01-5.2 5.2zm0 0" fill="#fff"/><path d="M45.004 28.68c0 11.16-8.824 20.16-19.8 20.16-3.427 0-6.485-.903-9.184-2.344l1.44-2.875a16.703 16.703 0 007.919 1.977c9.183 0 16.742-7.559 16.742-16.918 0-5.758-2.883-10.98-7.383-14.04v16.024l-5.578-5.227V13.2l-7.2 16.383h6.845v-2.703l6.472 6.117-6.656 5.227v-2.7h-9.183l-5.934 13.5-7.383-.183 18.184-37.078C15.48 12.297 8.46 19.496 8.46 28.68c0 3.058.719 5.941 2.16 8.285l-1.617 3.234C6.66 36.965 5.402 32.82 5.402 28.496 5.402 17.34 14.22 8.34 25.203 8.34h.535l2.883-5.758h6.117v8.281c5.942 3.418 10.266 10.075 10.266 17.817zM28.62 40.02h5.758v-5.04zm0 0" fill="#434190"/></svg>